# xmcd
#
# Track frame offsets:
#	150
#	7965
#	20970
#	32895
#	44955
#	54503
#	63451
#	75901
#	89176
#	98611
#	109404
#	121269
#
# Disc length: 1736 seconds
#
# Revision: 1
# Processed by: cddbd v1.5.2PL0 Copyright (c) Steve Scherf et al.
# Submitted via: audiograbber 1.83.01
#
DISCID=a206c60c
DTITLE=Goldie Hill - Country Hit Parade
DYEAR=1964
DGENRE=Country
TTITLE0=Love's Gonna Live Here
TTITLE1=I Love You Because
TTITLE2=Talk Back Trembling Lips
TTITLE3=He Thinks I Still Care
TTITLE4=Walkin' After Midnight
TTITLE5=Ring If Fire
TTITLE6=Hey Joe
TTITLE7=Making Believe
TTITLE8=Say Big Boy
TTITLE9=Still Wanting You 
TTITLE10=Crazy Arms
TTITLE11=I'm Gonna Bring You Down
EXTD=This is from one of my LP's that i have converted to CD
EXTT0=
EXTT1=
EXTT2=
EXTT3=
EXTT4=
EXTT5=
EXTT6=
EXTT7=
EXTT8=
EXTT9=
EXTT10=
EXTT11=
PLAYORDER=
